<svg viewBox="0 0 96 96" xmlns="http://www.w3.org/2000/svg" xmlns:xlink="http://www.w3.org/1999/xlink" id="Icons_Wheelbarrow" overflow="hidden"><path d="M79.1 63.4C79.1 66.2 76.9 68.4 74.1 68.4 71.3 68.4 69.1 66.2 69.1 63.4 69.1 60.6 71.3 58.4 74.1 58.4 76.9 58.4 79.1 60.7 79.1 63.4ZM44.1 67.1 39.8 57.4 48.5 57.4 44.1 67.1ZM84.9 33.4 29.3 33.4 24.8 23.2C24.3 22.1 23.2 21.4 22 21.4L12 21.4C10.3 21.4 9 22.7 9 24.4 9 26.1 10.3 27.4 12 27.4L20 27.4 39.5 71.7C40.3 73.4 42.1 74.6 44 74.6L44.1 74.6C46 74.6 47.7 73.5 48.6 71.8L48.6 71.7 55 57.4 64.8 57.4C62.1 61.6 62.5 67.2 65.9 70.9 69.3 74.6 74.8 75.5 79.2 73.1 83.6 70.7 85.9 65.6 84.6 60.7 83.4 55.8 79 52.4 74 52.4L74 52.4 86.4 36.6C86.9 36 87 35.2 86.6 34.5 86.4 33.9 85.7 33.4 84.9 33.4Z" fill="#404040"/></svg>